# File created by Blade
# Date/Time:  Wed Jan 21 17:05:50 2015
#---------------------------------------------------------
:version 1.10
:name HOM
:units
  mass 1.0
  length 1.000000
  angle deg
:documentation
     Acclaim Skeleton File
:root
   axis xyz
   order TX TY TZ RX RY RZ
   position 0.000000 0.000000 0.000000
   orientation 0 0 0
:bonedata
   begin
      id 1
      name Spine_dum
      direction 0.000000 1.000000 0.000000
      length 7.067664
      axis 0.0 0.0 0.0 xyz
   end
   begin
      id 2
      name LeftUpLeg_dum
      direction 1.000000 0.000000 0.000000
      length 4.013002
      axis 0.0 0.0 0.0 xyz
   end
   begin
      id 3
      name RightUpLeg_dum
      direction -1.000000 0.000000 0.000000
      length 4.013002
      axis 0.0 0.0 0.0 xyz
   end
   begin
      id 4
      name Spine
      direction 0.000000 1.000000 0.000000
      length 0.000000
      axis 0.0 0.0 0.0 xyz
      dof rx ry rz
   end
   begin
      id 5
      name Spine_dum1
      direction 0.000000 1.000000 0.000000
      length 15.039886
      axis 0.0 0.0 0.0 xyz
   end
   begin
      id 6
      name Spine_dum2
      direction 0.000000 1.000000 0.000000
      length 10.530368
      axis 0.0 0.0 0.0 xyz
   end
   begin
      id 7
      name Spine_dum3
      direction 0.000000 1.000000 0.000000
      length 10.530368
      axis 0.0 0.0 0.0 xyz
   end
   begin
      id 8
      name Head
      direction 0.000000 1.000000 0.000000
      length 4.527550
      axis 0.0 0.0 0.0 xyz
      dof rx ry rz
   end
   begin
      id 9
      name LeftShoulder
      direction 1.000000 0.000000 0.000000
      length 7.028855
      axis 0.0 0.0 -90.0 xyz
      dof rx ry rz
   end
   begin
      id 10
      name LeftArm
      direction 1.000000 0.000000 0.000000
      length 10.797705
      axis 0.0 0.0 -90.0 xyz
      dof rx ry rz
   end
   begin
      id 11
      name LeftForeArm
      direction 1.000000 0.000000 0.000000
      length 7.907442
      axis 0.0 0.0 -90.0 xyz
      dof ry rz rx
   end
   begin
      id 12
      name LeftHand
      direction 0.000000 0.000000 0.000000
      length 0.000000
      axis 0.0 0.0 -90.0 xyz
      dof rx ry rz
   end
   begin
      id 13
      name LeftHand_dum1
      direction 0.000000 0.000000 0.000000
      length 0.000000
      axis 0.0 0.0 -90.0 xyz
   end
   begin
      id 14
      name LeftHand_dum2
      direction 1.000000 0.000000 0.000000
      length 3.937000
      axis 0.0 0.0 -90.0 xyz
   end
   begin
      id 15
      name LeftHandThumb1
      direction 0.000000 0.000000 1.000000
      length 3.937000
      axis 0.0 0.0 -90.0 xyz
      dof rx rz ry
   end
   begin
      id 16
      name RightShoulder
      direction -1.000000 0.000000 0.000000
      length 7.028855
      axis 0.0 0.0 90.0 xyz
      dof rx ry rz
   end
   begin
      id 17
      name RightArm
      direction -1.000000 0.000000 0.000000
      length 10.797705
      axis 0.0 0.0 90.0 xyz
      dof rx ry rz
   end
   begin
      id 18
      name RightForeArm
      direction -1.000000 0.000000 0.000000
      length 7.907442
      axis 0.0 0.0 90.0 xyz
      dof ry rz rx
   end
   begin
      id 19
      name RightHand
      direction 0.000000 0.000000 0.000000
      length 0.000000
      axis 0.0 0.0 90.0 xyz
      dof rx ry rz
   end
   begin
      id 20
      name RightHand_dum1
      direction 0.000000 0.000000 0.000000
      length 0.000000
      axis 0.0 0.0 90.0 xyz
   end
   begin
      id 21
      name RightHand_dum2
      direction -1.000000 0.000000 0.000000
      length 3.937000
      axis 0.0 0.0 90.0 xyz
   end
   begin
      id 22
      name RightHandThumb1
      direction 0.000000 0.000000 1.000000
      length 3.937000
      axis 0.0 0.0 90.0 xyz
      dof rx rz ry
   end
   begin
      id 23
      name LeftUpLeg
      direction 0.000000 -1.000000 0.000000
      length 16.899758
      axis 0.0 0.0 0.0 xyz
      dof rx ry rz
   end
   begin
      id 24
      name LeftLeg
      direction 0.000000 -1.000000 0.000000
      length 17.389183
      axis 0.0 0.0 0.0 xyz
      dof rx ry rz
   end
   begin
      id 25
      name LeftFoot
      direction 0.000000 -0.258819 0.965926
      length 4.924528
      axis 15.0 0.0 0.0 xyz
      dof rx ry rz
   end
   begin
      id 26
      name LeftToeBase
      direction 0.000000 0.000000 1.000000
      length 2.952750
      axis 0.0 0.0 0.0 xyz
      dof rx ry rz
   end
   begin
      id 27
      name RightUpLeg
      direction 0.000000 -1.000000 0.000000
      length 16.899758
      axis 0.0 0.0 0.0 xyz
      dof rx ry rz
   end
   begin
      id 28
      name RightLeg
      direction 0.000000 -1.000000 0.000000
      length 17.389183
      axis 0.0 0.0 0.0 xyz
      dof rx ry rz
   end
   begin
      id 29
      name RightFoot
      direction 0.000000 -0.258819 0.965926
      length 4.924528
      axis 15.0 0.0 0.0 xyz
      dof rx ry rz
   end
   begin
      id 30
      name RightToeBase
      direction 0.000000 0.000000 1.000000
      length 2.952750
      axis 0.0 0.0 0.0 xyz
      dof rx ry rz
   end
:hierarchy
   begin
      root Spine_dum LeftUpLeg_dum RightUpLeg_dum
      Spine_dum Spine
      LeftUpLeg_dum LeftUpLeg
      RightUpLeg_dum RightUpLeg
      Spine Spine_dum1 Spine_dum2 Spine_dum3
      Spine_dum1 Head
      Spine_dum2 LeftShoulder
      Spine_dum3 RightShoulder
      LeftShoulder LeftArm
      LeftArm LeftForeArm
      LeftForeArm LeftHand
      LeftHand LeftHand_dum1 LeftHand_dum2
      LeftHand_dum1 LeftHandThumb1
      RightShoulder RightArm
      RightArm RightForeArm
      RightForeArm RightHand
      RightHand RightHand_dum1 RightHand_dum2
      RightHand_dum1 RightHandThumb1
      LeftUpLeg LeftLeg
      LeftLeg LeftFoot
      LeftFoot LeftToeBase
      RightUpLeg RightLeg
      RightLeg RightFoot
      RightFoot RightToeBase
   end

# File created by Blade
# Date/Time:  Wed Jan 21 17:05:57 2015
# Frame Rate: 120.000 fps
#------------------------------------------------------
:FULLY-SPECIFIED
:DEGREES
65
root 19.354671 35.605739 -22.817345 -173.788126 -1.713032 -179.330828
Spine -17.936623 -0.601543 -0.296124
Head 8.575368 -1.102621 1.493193
LeftShoulder -9.400388 -30.947311 16.390838
LeftArm 3.464062 3.049837 -10.551794
LeftForeArm 2.950756 -0.000000 -3.463510
LeftHand -8.841153 -0.000000 -4.977642
LeftHandThumb1 -26.253704 0.000000 33.147579
RightShoulder -10.027712 -6.254116 -7.385814
RightArm 9.870506 35.910989 13.529514
RightForeArm -31.988855 -0.000000 4.186999
RightHand -6.895663 0.000000 6.869815
RightHandThumb1 -24.326973 -0.000000 -32.862282
LeftUpLeg 1.765909 10.045441 2.754200
LeftLeg -4.913725 -0.000000 0.000000
LeftFoot -19.329956 24.525667 -15.203899
LeftToeBase 24.162098 -0.000000 -0.000000
RightUpLeg 0.882692 -8.724599 -1.313472
RightLeg -2.375352 -0.000000 0.000000
RightFoot -21.155482 -23.368070 18.632650
RightToeBase 22.951395 -0.000000 -0.000000
66
root 19.353306 35.606281 -22.816085 -173.808227 -1.708188 -179.336059
Spine -17.893379 -0.594802 -0.306197
Head 8.592305 -1.112194 1.500800
LeftShoulder -9.376028 -30.996212 16.400501
LeftArm 3.425822 3.114434 -10.545438
LeftForeArm 2.906127 0.000000 -3.482504
LeftHand -8.830588 -0.000000 -4.973595
LeftHandThumb1 -26.253704 0.000000 33.147579
RightShoulder -10.019517 -6.253891 -7.379549
RightArm 9.837614 35.929096 13.492929
RightForeArm -32.060023 -0.000000 4.164061
RightHand -6.860748 0.000000 6.913746
RightHandThumb1 -24.326973 -0.000000 -32.862282
LeftUpLeg 1.776316 10.061844 2.747757
LeftLeg -4.902204 -0.000000 0.000000
LeftFoot -19.330593 24.524710 -15.218134
LeftToeBase 24.158803 -0.000000 -0.000000
RightUpLeg 0.891974 -8.733353 -1.326240
RightLeg -2.368666 -0.000000 0.000000
RightFoot -21.145494 -23.399011 18.525088
RightToeBase 23.153667 -0.000000 -0.000000
67
root 19.351489 35.607174 -22.813481 -173.826965 -1.708430 -179.339831
Spine -17.846981 -0.592865 -0.306512
Head 8.612621 -1.111865 1.487977
LeftShoulder -9.355298 -30.989965 16.381600
LeftArm 3.412012 3.058619 -10.527108
LeftForeArm 2.924054 -0.000000 -3.492211
LeftHand -8.832761 -0.000000 -4.985945
LeftHandThumb1 -26.253704 0.000000 33.147579
RightShoulder -10.011805 -6.240886 -7.386466
RightArm 9.812599 35.916787 13.462738
RightForeArm -32.089598 -0.000000 4.146663
RightHand -6.872296 -0.000000 6.950540
RightHandThumb1 -24.326973 -0.000000 -32.862282
LeftUpLeg 1.778942 10.053971 2.741620
LeftLeg -4.881756 -0.000000 0.000000
LeftFoot -19.335630 24.553632 -15.229234
LeftToeBase 24.137312 -0.000000 -0.000000
RightUpLeg 0.891251 -8.740300 -1.333415
RightLeg -2.338784 -0.000000 0.000000
RightFoot -21.155657 -23.403427 18.472460
RightToeBase 23.224987 -0.000000 -0.000000
68
root 19.350033 35.608036 -22.810285 -173.855227 -1.705839 -179.336037
Spine -17.789695 -0.592685 -0.295983
Head 8.643640 -1.108346 1.469138
LeftShoulder -9.326360 -31.037160 16.363478
LeftArm 3.379216 3.044282 -10.497501
LeftForeArm 2.949528 -0.000000 -3.511088
LeftHand -8.829957 -0.000000 -4.996334
LeftHandThumb1 -26.253704 0.000000 33.147579
RightShoulder -10.011688 -6.281903 -7.361931
RightArm 9.834646 35.909174 13.407752
RightForeArm -32.091234 -0.000000 4.101453
RightHand -6.852819 -0.000000 7.025888
RightHandThumb1 -24.326973 -0.000000 -32.862282
LeftUpLeg 1.786224 10.080861 2.745844
LeftLeg -4.853870 -0.000000 0.000000
LeftFoot -19.335273 24.542217 -15.228253
LeftToeBase 24.133804 -0.000000 -0.000000
RightUpLeg 0.898827 -8.731954 -1.332440
RightLeg -2.309320 -0.000000 0.000000
RightFoot -21.144993 -23.376334 18.600532
RightToeBase 22.996471 -0.000000 -0.000000
69
root 19.349043 35.609195 -22.806674 -173.877923 -1.689515 -179.340198
Spine -17.729204 -0.582341 -0.301866
Head 8.658980 -1.081402 1.468510
LeftShoulder -9.310082 -31.067049 16.353607
LeftArm 3.360023 3.070247 -10.467344
LeftForeArm 2.918292 -0.000000 -3.516197
LeftHand -8.842940 -0.000000 -5.012822
LeftHandThumb1 -26.253704 0.000000 33.147579
RightShoulder -9.982940 -6.231420 -7.383492
RightArm 9.773568 35.842209 13.365750
RightForeArm -32.127187 -0.000000 4.085740
RightHand -6.811219 -0.000000 7.043170
RightHandThumb1 -24.326973 -0.000000 -32.862282
LeftUpLeg 1.781715 10.130179 2.741619
LeftLeg -4.810155 -0.000000 0.000000
LeftFoot -19.339655 24.518652 -15.217339
LeftToeBase 24.215630 -0.000000 -0.000000
RightUpLeg 0.896915 -8.699827 -1.342815
RightLeg -2.283750 -0.000000 0.000000
RightFoot -21.153653 -23.450438 18.463859
RightToeBase 23.274652 -0.000000 -0.000000
70
root 19.348373 35.609873 -22.801799 -173.902092 -1.683413 -179.340829
Spine -17.658780 -0.578399 -0.304691
Head 8.655456 -1.091586 1.466302
LeftShoulder -9.296149 -31.115176 16.355934
LeftArm 3.341614 3.075572 -10.447157
LeftForeArm 2.923468 0.000000 -3.523928
LeftHand -8.867060 -0.000000 -5.029787
LeftHandThumb1 -26.253704 0.000000 33.147579
RightShoulder -9.971577 -6.215088 -7.406847
RightArm 9.758859 35.785865 13.358563
RightForeArm -32.104248 -0.000000 4.072790
RightHand -6.797886 -0.000000 7.086920
RightHandThumb1 -24.326973 -0.000000 -32.862282
LeftUpLeg 1.778944 10.138424 2.744163
LeftLeg -4.772536 -0.000000 0.000000
LeftFoot -19.350133 24.530055 -15.209963
LeftToeBase 24.229222 -0.000000 -0.000000
RightUpLeg 0.889100 -8.727779 -1.344742
RightLeg -2.247508 -0.000000 0.000000
RightFoot -21.144502 -23.470120 18.421231
RightToeBase 23.561769 -0.000000 -0.000000
71
root 19.351737 35.611760 -22.798929 -173.932875 -1.726603 -179.337032
Spine -17.594854 -0.624783 -0.309008
Head 8.723813 -1.120284 1.432739
LeftShoulder -9.259142 -31.123821 16.354986
LeftArm 3.325818 3.018860 -10.422232
LeftForeArm 2.998806 0.000000 -3.541500
LeftHand -8.877176 0.000000 -5.077709
LeftHandThumb1 -26.253704 0.000000 33.147579
RightShoulder -9.912589 -6.170953 -7.433105
RightArm 9.652693 35.707426 13.299653
RightForeArm -32.081178 -0.000000 4.053512
RightHand -6.790108 -0.000000 7.100549
RightHandThumb1 -24.326973 -0.000000 -32.862282
LeftUpLeg 1.767437 10.111932 2.763184
LeftLeg -4.714512 -0.000000 0.000000
LeftFoot -19.362949 24.502516 -15.236946
LeftToeBase 24.183981 -0.000000 -0.000000
RightUpLeg 0.903907 -8.792168 -1.331411
RightLeg -2.221021 -0.000000 0.000000
RightFoot -21.151045 -23.462343 18.422518
RightToeBase 23.290457 -0.000000 -0.000000
72
root 19.350649 35.613161 -22.791820 -173.955949 -1.705641 -179.350084
Spine -17.518489 -0.613099 -0.330650
Head 8.729364 -1.123021 1.430640
LeftShoulder -9.232181 -31.145117 16.349996
LeftArm 3.327132 3.026245 -10.389678
LeftForeArm 3.058474 -0.000000 -3.568007
LeftHand -9.024635 -0.000000 -4.947886
LeftHandThumb1 -26.253704 0.000000 33.147579
RightShoulder -9.876068 -6.142758 -7.447991
RightArm 9.607925 35.646437 13.254331
RightForeArm -32.065641 0.000000 4.027366
RightHand -6.732249 0.000000 7.149309
RightHandThumb1 -24.326973 -0.000000 -32.862282
LeftUpLeg 1.751213 10.161718 2.748645
LeftLeg -4.653704 -0.000000 0.000000
LeftFoot -19.354921 24.469578 -15.229120
LeftToeBase 24.140831 -0.000000 -0.000000
RightUpLeg 0.887305 -8.763258 -1.348863
RightLeg -2.175526 -0.000000 0.000000
RightFoot -21.148113 -23.477362 18.416870
RightToeBase 23.280928 -0.000000 -0.000000
73
root 19.351811 35.614960 -22.781625 -173.980000 -1.678285 -179.354191
Spine -17.419255 -0.597430 -0.353488
Head 8.703223 -1.128760 1.453723
LeftShoulder -9.215099 -31.188054 16.370875
LeftArm 3.322168 3.065809 -10.368782
LeftForeArm 3.048807 -0.000000 -3.600789
LeftHand -8.923645 -0.000000 -5.110554
LeftHandThumb1 -26.253704 0.000000 33.147579
RightShoulder -9.859205 -6.134299 -7.442765
RightArm 9.608736 35.655216 13.228522
RightForeArm -32.171276 -0.000000 4.010651
RightHand -6.591377 0.000000 7.273975
RightHandThumb1 -24.326973 -0.000000 -32.862282
LeftUpLeg 1.718290 10.196589 2.749423
LeftLeg -4.559776 -0.000000 0.000000
LeftFoot -19.350436 24.451137 -15.165650
LeftToeBase 24.151568 -0.000000 -0.000000
RightUpLeg 0.854531 -8.763325 -1.349744
RightLeg -2.107927 -0.000000 0.000000
RightFoot -21.131090 -23.406154 18.565630
RightToeBase 22.831665 -0.000000 -0.000000
74
root 19.352915 35.617837 -22.769269 -173.990769 -1.652833 -179.365047
Spine -17.335442 -0.581965 -0.378652
Head 8.707135 -1.138661 1.450932
LeftShoulder -9.179066 -31.235301 16.352112
LeftArm 3.333729 3.140546 -10.307930
LeftForeArm 3.093507 0.000000 -3.622300
LeftHand -8.928101 -0.000000 -5.157233
LeftHandThumb1 -26.253704 0.000000 33.147579
RightShoulder -9.847290 -6.146081 -7.418169
RightArm 9.654522 35.682541 13.191003
RightForeArm -32.239208 -0.000000 3.938222
RightHand -6.768964 -0.000000 7.241609
RightHandThumb1 -24.326973 -0.000000 -32.862282
LeftUpLeg 1.661286 10.226971 2.734216
LeftLeg -4.466386 -0.000000 0.000000
LeftFoot -19.379491 24.456094 -15.186093
LeftToeBase 24.214580 -0.000000 -0.000000
RightUpLeg 0.802172 -8.769382 -1.359593
RightLeg -2.032423 -0.000000 0.000000
RightFoot -21.130285 -23.376348 18.548396
RightToeBase 22.858007 -0.000000 -0.000000
75
root 19.354940 35.620850 -22.754384 -173.989390 -1.641824 -179.387699
Spine -17.253665 -0.577091 -0.432096
Head 8.694916 -1.129833 1.481407
LeftShoulder -9.133964 -31.291880 16.359861
LeftArm 3.342459 3.256488 -10.263304
LeftForeArm 3.160123 -0.000000 -3.642427
LeftHand -8.938917 -0.000000 -5.199682
LeftHandThumb1 -26.253704 0.000000 33.147579
RightShoulder -9.840041 -6.154530 -7.396926
RightArm 9.688027 35.673514 13.160873
RightForeArm -32.360351 0.000000 3.888563
RightHand -6.758643 -0.000000 7.328145
RightHandThumb1 -24.326973 -0.000000 -32.862282
LeftUpLeg 1.572266 10.235898 2.702863
LeftLeg -4.349192 -0.000000 0.000000
LeftFoot -19.377386 24.487986 -15.196327
LeftToeBase 24.134288 -0.000000 -0.000000
RightUpLeg 0.733035 -8.770253 -1.372101
RightLeg -1.954083 -0.000000 0.000000
RightFoot -21.156786 -23.390094 18.484456
RightToeBase 22.951451 -0.000000 -0.000000
76
root 19.356981 35.623904 -22.735844 -173.978811 -1.623432 -179.410472
Spine -17.163365 -0.578625 -0.487930
Head 8.665898 -1.119943 1.529912
LeftShoulder -9.118512 -31.287285 16.373891
LeftArm 3.405633 3.268609 -10.217293
LeftForeArm 3.269134 -0.000000 -3.688121
LeftHand -9.020954 -0.000000 -5.081289
LeftHandThumb1 -26.253704 0.000000 33.147579
RightShoulder -9.827977 -6.164662 -7.346289
RightArm 9.720360 35.593957 13.067520
RightForeArm -32.367154 -0.000000 3.844784
RightHand -6.597366 -0.000000 7.506576
RightHandThumb1 -24.326973 -0.000000 -32.862282
LeftUpLeg 1.460462 10.207167 2.670808
LeftLeg -4.212420 -0.000000 0.000000
LeftFoot -19.408802 24.546325 -15.210032
LeftToeBase 24.105104 -0.000000 -0.000000
RightUpLeg 0.642118 -8.764563 -1.384461
RightLeg -1.864602 -0.000000 0.000000
RightFoot -21.163357 -23.389023 18.459433
RightToeBase 22.914279 -0.000000 -0.000000
